# AST/ASF file generated using VICON BodyLanguage
# -----------------------------------------------
:version 1.10
:name VICON
:units
  mass 1.0
  length 0.45
  angle deg
:documentation
   .ast/.asf automatically generated from VICON data using
   VICON BodyBuilder and BodyLanguage model FoxedUp or BRILLIANT.MOD
:root
   order TX TY TZ RX RY RZ
   axis XYZ
   position 0 0 0  
   orientation 0 -0 0 
:bonedata
  begin
     id 1 
     name lhipjoint
     direction 0.432694 -0.693742 0.575759 
     length 2.19277 
     axis 0 -0 0  XYZ
  end
  begin
     id 2 
     name lfemur
     direction 0.34202 -0.939693 0  
     length 6.69022  
     axis 0 -0 20  XYZ
    dof rx ry rz
    limits (-160.0 20.0)
           (-70.0 70.0)
           (-60.0 70.0)
  end
  begin
     id 3 
     name ltibia
     direction 0.34202 -0.939693 0   
     length 6.50337   
     axis 0 -0 20   XYZ
    dof rx
    limits (-10.0 170.0)
  end
  begin
     id 4 
     name lfoot
     direction 0.158999 -0.435969 0.885805   
     length 2.70564   
     axis -90 -1.13533e-015 20   XYZ
    dof rx rz
    limits (-45.0 90.0)
           (-70.0 20.0)
  end
  begin
     id 5 
     name ltoes
     direction -0.00592919 0.00964381 0.999936   
     length 1.29929   
     axis -90 -1.13533e-015 20   XYZ
    dof rx
    limits (-90.0 20.0)
  end
  begin
     id 6 
     name rhipjoint
     direction -0.414359 -0.700339 0.581234   
     length 2.17212  
     axis 0 -0 0  XYZ 
  end
  begin
     id 7 
     name rfemur
     direction -0.34202 -0.939693 0   
     length 7.17659   
     axis 0 -0 -20   XYZ
    dof rx ry rz
    limits (-160.0 20.0)
           (-70.0 70.0)
           (-70.0 60.0)
  end
  begin
     id 8 
     name rtibia
     direction -0.34202 -0.939693 0   
     length 6.36669   
     axis 0 -0 -20   XYZ
    dof rx
    limits (-10.0 170.0)
 end
 begin
     id 9 
     name rfoot
     direction -0.137064 -0.37658 0.916188   
     length 2.22351  
     axis -90 1.13533e-015 -20   XYZ
    dof rx rz
    limits (-45.0 90.0)
           (-20.0 70.0)
  end
  begin
     id 10 
     name rtoes
     direction -0.000784077 -0.00289101 0.999996   
     length 1.09522   
     axis -90 1.13533e-015 -20   XYZ
    dof rx
    limits (-90.0 20.0)
  end
  begin
     id 11 
     name lowerback
     direction -0.0176242 0.984912 -0.172157   
     length 1.65301   
     axis 0 -0 0   XYZ
    dof rx ry rz
    limits (-20.0 45.0)
           (-30.0 30.0)
           (-30.0 30.0)
  end
  begin
     id 12 
     name upperback
     direction -0.00218128 0.998776 -0.0494072   
     length 1.67776   
     axis 0 -0 0   XYZ
    dof rx ry rz
    limits (-20.0 45.0)
           (-30.0 30.0)
           (-30.0 30.0)
  end
  begin
     id 13 
     name thorax
     direction 0.00544186 0.999658 0.0255711   
     length 1.72293   
     axis 0 -0 0   XYZ
    dof rx ry rz
    limits (-20.0 45.0)
           (-30.0 30.0)
           (-30.0 30.0)
  end
  begin
     id 14 
     name lowerneck
     direction -0.105325 0.983841 0.144785   
     length 2.14226   
     axis 0 -0 0   XYZ
    dof rx ry rz
    limits (-20.0 45.0)
           (-30.0 30.0)
           (-30.0 30.0)
  end
  begin
     id 15 
     name upperneck
     direction 0.0547957 0.988053 -0.144041   
     length 2.17508   
     axis 0 -0 0   XYZ
    dof rx ry rz
    limits (-20.0 45.0)
           (-30.0 30.0)
           (-30.0 30.0)
  end
  begin
     id 16
     name head
     direction 0.0247488 0.997534 -0.0656813  
     length 2.20048  
     axis 0 -0 0   XYZ
    dof rx ry rz
    limits (-20.0 45.0)
           (-30.0 30.0)
           (-30.0 30.0)
  end
  begin
     id 17 
     name lclavicle
     direction 0.820559 0.567247 -0.0701026  
     length 4.09615  
     axis 0 -0 0   XYZ
    dof ry rz
    limits (-20.0 10.0)
           (0.0 20.0)
  end
  begin
     id 18 
     name lhumerus
     direction 0.999977 -0.0067566 -9.96392e-005   
     length 4.59333   
     axis -180 -30 -90   XYZ
    dof rx ry rz
    limits (-60.0 90.0)
           (-90.0 90.0)
           (-90.0 90.0)
  end
  begin
     id 19
     name lradius
     direction 1 -4.48982e-011 -2.53425e-027   
     length 2.81151   
     axis -180 -30 -90   XYZ
    dof rx
    limits (-10.0 170.0)
  end
  begin
     id 20
     name lwrist
     direction 1 -4.48939e-011 -7.39254e-028   
     length 1.40576   
     axis 2.56395e-016 90 90   XYZ
    dof ry
    limits (-180.0 0.0)
 end
  begin
     id 21 
     name lhand
     direction 1 -4.48939e-011 -1.47851e-027   
     length 0.895651   
     axis 9.43423e-016 90 90   XYZ
    dof rx rz
    limits (-90.0 90.0)
           (-45.0 45.0)
  end
  begin
     id 22 
     name lfingers
     direction 1 -4.48978e-011 -2.95702e-027   
     length 0.722097   
     axis 1.88685e-015 90 90   XYZ
    dof rx
    limits (0.0 90.0)
  end
  begin
     id 23
     name lthumb
     direction 0.707107 -6.34931e-011 0.707107   
     length 1.03679   
     axis -90 45 -9.86935e-015   XYZ
    dof rx rz
    limits (-45.0 45.0)
           (-45.0 45.0)
  end
  begin
     id 24 
     name rclavicle
     direction -0.831414 0.553102 -0.0531864   
     length 4.24872  
     axis 0 -0 0   XYZ 
    dof ry rz
    limits (-10.0 20.0)
           (-20.0 0.0)
  end
  begin
     id 25 
     name rhumerus
     direction -0.999916 -0.000939607 0.0129331  
     length 4.74834   
     axis -180 30 90   XYZ
    dof rx ry rz
    limits (-90.0 60.0)
           (-90.0 90.0)
           (-90.0 90.0)
  end
  begin
     id 26 
     name rradius
     direction -1 -4.48956e-011 -1.31752e-027   
     length 2.79907   
     axis -180 30 90   XYZ
    dof rx
    limits (-10.0 170.0)
  end
  begin
     id 27 
     name rwrist
     direction -1 -4.4897e-011 -7.39254e-028   
     length 1.39954   
     axis 2.56395e-016 -90 -90   XYZ
    dof ry
    limits (-180.0 0.0)
  end
  begin
     id 28
     name rhand
     direction -0.999997 -0.00250697 0.000800838   
     length 0.953304   
     axis 9.43423e-016 -90 -90   XYZ
    dof rx rz
    limits (-90.0 90.0)
           (-45.0 45.0)
  end
  begin
     id 29
     name rfingers
     direction -1 -4.48954e-011 -2.95702e-027   
     length 0.763342   
     axis 1.88685e-015 -90 -90   XYZ
    dof rx
    limits (0.0 90.0)
  end
  begin
     id 30
     name rthumb
     direction -0.709701 -0.00217037 0.7045   
     length 1.10115   
     axis -90 -45 9.86935e-015   XYZ
    dof rx rz
    limits (-45.0 45.0)
           (-45.0 45.0)
  end
:hierarchy
  begin
    root lhipjoint rhipjoint lowerback
    lhipjoint lfemur
    lfemur ltibia
    ltibia lfoot
    lfoot ltoes
    rhipjoint rfemur
    rfemur rtibia
    rtibia rfoot
    rfoot rtoes
    lowerback upperback
    upperback thorax
    thorax lowerneck lclavicle rclavicle
    lowerneck upperneck
    upperneck head
    lclavicle lhumerus
    lhumerus lradius
    lradius lwrist
    lwrist lhand lthumb
    lhand lfingers
    rclavicle rhumerus
    rhumerus rradius
    rradius rwrist
    rwrist rhand rthumb
    rhand rfingers
  end

#!OML:ASF G:\ViconDB\ViconDB\414\test\team2\shane.ASF
:FULLY-SPECIFIED
:DEGREES
101
root 7.93487 16.8533 22.634 -10.9715 3.02381 -6.71951
lowerback 7.05107 3.61551 9.50796
upperback 3.09956 5.44687 2.2132
thorax -0.0406201 2.81062 -3.34634
lowerneck -15.3152 -9.91387 -6.04046
upperneck 21.867 -14.5012 8.39978
head 10.6308 -6.23547 1.88301
rclavicle -7.43657e-014 -4.22914e-014
rhumerus -37.163 15.9161 -97.1605
rradius 109.239
rwrist -319.561
rhand -49.8353 -28.8368
rfingers 7.12502
rthumb -22.431 -57.5543
lclavicle -4.79145e-014 -5.56597e-014
lhumerus -69.4062 -29.071 100.295
lradius 68.2468
lwrist -16.4714
lhand -53.2271 7.46584
lfingers 7.12502
lthumb -25.6833 35.7532
rfemur 34.0661 -10.7957 20.8748
rtibia 11.103
rfoot 2.84221 -1.84076
rtoes -21.5726
lfemur -21.8237 -0.732274 -9.74423
ltibia 57.7981
lfoot -14.6765 -7.35125
ltoes -9.9355
102
root 7.97871 16.9757 23.1295 -10.8084 2.68762 -6.67752
lowerback 6.76187 3.84067 9.6712
upperback 2.91145 5.73141 2.00464
thorax -0.00193772 2.95151 -3.64667
lowerneck -15.7586 -10.0539 -5.91738
upperneck 22.4924 -14.8281 8.53331
head 10.976 -6.31877 1.83087
rclavicle -3.81496e-014 -1.50704e-014
rhumerus -37.9763 17.2336 -96.8724
rradius 111.658
rwrist -318.951
rhand -49.5738 -27.0577
rfingers 7.12502
rthumb -22.18 -55.8052
lclavicle -4.79145e-014 -5.56597e-014
lhumerus -69.4062 -29.071 100.295
lradius 68.2468
lwrist -16.4714
lhand -53.2271 7.46584
lfingers 7.12502
lthumb -25.6833 35.7532
rfemur 35.4262 -10.1359 20.3727
rtibia 9.82942
rfoot 7.68201 -0.920579
rtoes -19.6619
lfemur -22.1195 -0.441216 -10.0507
ltibia 53.3067
lfoot -11.5066 -7.16792
ltoes -10.38
103
root 8.01579 17.0831 23.6241 -10.7584 2.24612 -6.66641
lowerback 6.77064 4.01141 9.67824
upperback 2.68313 5.9737 1.88687
thorax -0.200198 3.05682 -3.79385
lowerneck -16.1385 -10.1892 -5.97814
upperneck 23.1068 -15.1189 8.70563
head 11.3259 -6.39668 1.82859
rclavicle -5.05519e-014 3.48867e-014
rhumerus -37.9763 17.2336 -96.8724
rradius 111.658
rwrist -318.951
rhand -49.5738 -27.0577
rfingers 7.12502
rthumb -22.18 -55.8052
lclavicle -4.79145e-014 -5.56597e-014
lhumerus -69.4062 -29.071 100.295
lradius 68.2468
lwrist -16.4714
lhand -53.2271 7.46584
lfingers 7.12502
lthumb -25.6833 35.7532
rfemur 35.9619 -9.41999 19.9955
rtibia 10.3037
rfoot 11.691 0.216271
rtoes -17.3631
lfemur -22.2792 -0.0581334 -10.1609
ltibia 49.2361
lfoot -8.80593 -6.58641
ltoes -9.95372
104
root 8.05116 17.1518 24.1083 -10.7062 1.76585 -6.8828
lowerback 6.78851 4.09417 9.88807
upperback 2.48313 6.11115 1.79983
thorax -0.368346 3.11283 -4.01492
lowerneck -16.5442 -10.2689 -5.86084
upperneck 23.6376 -15.333 8.74266
head 11.6191 -6.44182 1.76336
rclavicle 5.28022e-016 2.28602e-015
rhumerus -39.6049 20.5532 -96.5587
rradius 115.542
rwrist -318.51
rhand -48.8067 -23.6277
rfingers 7.12502
rthumb -21.4434 -52.4609
lclavicle -4.79145e-014 -5.56597e-014
lhumerus -69.4062 -29.071 100.295
lradius 68.2468
lwrist -16.4714
lhand -53.2271 7.46584
lfingers 7.12502
lthumb -25.6833 35.7532
rfemur 35.6524 -8.61722 19.9888
rtibia 12.4228
rfoot 14.8092 0.943013
rtoes -13.2149
lfemur -22.5303 0.816533 -10.0135
ltibia 45.8224
lfoot -7.30293 -6.35487
ltoes -9.32372
105
root 8.0782 17.1991 24.5927 -10.7264 1.21635 -7.00804
lowerback 6.80392 4.17461 9.78662
upperback 2.3569 6.22235 1.81833
thorax -0.507153 3.15667 -3.95371
lowerneck -16.6746 -10.3541 -6.37227
upperneck 23.8114 -15.531 9.40502
head 11.8419 -6.48205 2.03578
rclavicle 4.8696e-014 3.53837e-014
rhumerus -40.1899 22.3008 -96.3663
rradius 116.77
rwrist -318.054
rhand -48.5996 -23.3647
rfingers 7.12502
rthumb -21.2445 -52.2205
lclavicle -4.79145e-014 -5.56597e-014
lhumerus -69.4062 -29.071 100.295
lradius 68.2468
lwrist -16.4714
lhand -53.2271 7.46584
lfingers 7.12502
lthumb -25.6833 35.7532
rfemur 34.9326 -7.61124 20.1058
rtibia 15.5087
rfoot 16.7702 0.759102
rtoes -8.99352
lfemur -22.8382 2.35261 -10.0164
ltibia 43.1583
lfoot -6.94461 -6.68127
ltoes -9.12942
106
root 8.10274 17.2222 25.0716 -10.9429 0.75955 -7.35454
lowerback 7.01755 4.16481 9.89609
upperback 2.31528 6.2463 1.8732
thorax -0.660357 3.15999 -3.97933
lowerneck -17.2125 -10.271 -5.96157
upperneck 24.1631 -15.5038 9.22338
head 12.0276 -6.41988 1.88558
rclavicle 4.12105e-014 7.7526e-015
rhumerus -40.1899 22.3008 -96.3663
rradius 116.77
rwrist -318.054
rhand -48.5996 -23.3647
rfingers 7.12502
rthumb -21.2445 -52.2205
lclavicle -4.79145e-014 -5.56597e-014
lhumerus -69.4062 -29.071 100.295
lradius 68.2468
lwrist -16.4714
lhand -53.2271 7.46584
lfingers 7.12502
lthumb -25.6833 35.7532
rfemur 34.1853 -7.04056 20.2853
rtibia 19.1828
rfoot 16.7413 -0.0760738
rtoes -7.33602
lfemur -23.1423 4.62352 -9.87947
ltibia 41.1885
lfoot -7.12884 -8.41026
ltoes -8.57974
107
root 8.12882 17.2433 25.5542 -11.1164 0.31776 -7.43953
lowerback 7.10156 4.11827 9.81082
upperback 2.31069 6.18855 1.83009
thorax -0.724383 3.12796 -3.98345
lowerneck -17.2949 -10.2386 -6.11362
upperneck 24.0975 -15.5315 9.64104
head 12.0786 -6.39414 2.05128
rclavicle -1.43895e-013 -4.07509e-014
rhumerus -15.8136 42.6429 -24.4719
rradius 80.9593
rwrist -234.244
rhand 14.8611 -81.7759
rfingers 7.12502
rthumb 39.7209 107.086
lclavicle -4.79145e-014 -5.56597e-014
lhumerus -69.4062 -29.071 100.295
lradius 68.2468
lwrist -16.4714
lhand -53.2271 7.46584
lfingers 7.12502
lthumb -25.6833 35.7532
rfemur 33.2094 -6.37868 20.2152
rtibia 23.1831
rfoot 14.7958 -2.8767
rtoes -6.6177
lfemur -23.5367 8.08056 -10.2397
ltibia 39.746
lfoot -7.7518 -11.4656
ltoes -8.57742
108
root 8.14587 17.2423 26.0314 -11.387 0.252319 -7.4264
lowerback 7.3225 3.99186 9.50812
upperback 2.27953 6.02701 1.73153
thorax -0.923832 3.03687 -3.93606
lowerneck -17.3378 -10.1401 -6.11444
upperneck 23.967 -15.4896 10.0278
head 12.0735 -6.33229 2.19791
rclavicle -1.12189e-014 -3.10104e-014
rhumerus -15.8333 43.131 -24.3262
rradius 81.5918
rwrist -233.329
rhand 15.2702 -82.0128
rfingers 7.12502
rthumb 40.1059 107.207
lclavicle -4.79145e-014 -5.56597e-014
lhumerus -69.4062 -29.071 100.295
lradius 68.2468
lwrist -16.4714
lhand -53.2271 7.46584
lfingers 7.12502
lthumb -25.6833 35.7532
rfemur 32.1935 -6.21832 20.0276
rtibia 27.4483
rfoot 12.089 -6.16589
rtoes -6.18513
lfemur -23.8395 11.4319 -10.7215
ltibia 38.6308
lfoot -7.51644 -15.3318
ltoes -10.0127
109
root 8.16269 17.2219 26.5022 -11.7877 0.178835 -7.22735
lowerback 7.64553 3.78261 8.83433
upperback 2.36465 5.73144 1.69949
thorax -1.11956 2.88208 -3.61168
lowerneck -17.4122 -9.97744 -6.52688
upperneck 23.7369 -15.3202 10.7518
head 12.0942 -6.21202 2.554
rclavicle 6.37105e-014 1.98785e-016
rhumerus -15.4742 43.9317 -23.9109
rradius 82.1279
rwrist -232.256
rhand 15.5916 -82.1012
rfingers 7.12502
rthumb 40.4082 107.203
lclavicle -4.79145e-014 -5.56597e-014
lhumerus -69.4062 -29.071 100.295
lradius 68.2468
lwrist -16.4714
lhand -53.2271 7.46584
lfingers 7.12502
lthumb -25.6833 35.7532
rfemur 31.0986 -6.2272 19.4968
rtibia 31.8613
rfoot 9.95672 -8.74327
rtoes -4.09374
lfemur -23.6127 13.4215 -11.1553
ltibia 37.6937
lfoot -6.30243 -18.1538
ltoes -10.4027
